%TF.GenerationSoftware,KiCad,Pcbnew,9.0.5*%
%TF.CreationDate,2025-10-31T23:09:40-07:00*%
%TF.ProjectId,Business Card PCB,42757369-6e65-4737-9320-436172642050,rev?*%
%TF.SameCoordinates,Original*%
%TF.FileFunction,Drillmap*%
%TF.FilePolarity,Positive*%
%FSLAX45Y45*%
G04 Gerber Fmt 4.5, Leading zero omitted, Abs format (unit mm)*
G04 Created by KiCad (PCBNEW 9.0.5) date 2025-10-31 23:09:40*
%MOMM*%
%LPD*%
G01*
G04 APERTURE LIST*
%ADD10C,0.100000*%
%ADD11C,0.200000*%
%ADD12C,0.250000*%
G04 APERTURE END LIST*
D10*
X11200000Y-11300000D02*
G75*
G02*
X10700000Y-10800000I0J500000D01*
G01*
X18700000Y-11300000D02*
X11200000Y-11300000D01*
X19200000Y-6300000D02*
X19200000Y-10800000D01*
X10700000Y-6300000D02*
G75*
G02*
X11200000Y-5800000I500000J0D01*
G01*
X10700000Y-10800000D02*
X10700000Y-6300000D01*
X11200000Y-5800000D02*
X18700000Y-5800000D01*
X18700000Y-5800000D02*
G75*
G02*
X19200000Y-6300000I0J-500000D01*
G01*
X19200000Y-10800000D02*
G75*
G02*
X18700000Y-11300000I-500000J0D01*
G01*
D11*
D10*
X11578000Y-7757488D02*
X11663000Y-7842488D01*
X11663000Y-7757488D02*
X11578000Y-7842488D01*
X13628000Y-7757488D02*
X13713000Y-7842488D01*
X13713000Y-7757488D02*
X13628000Y-7842488D01*
D12*
X11325000Y-6300000D02*
G75*
G02*
X11075000Y-6300000I-125000J0D01*
G01*
X11075000Y-6300000D02*
G75*
G02*
X11325000Y-6300000I125000J0D01*
G01*
X18825000Y-6300000D02*
G75*
G02*
X18575000Y-6300000I-125000J0D01*
G01*
X18575000Y-6300000D02*
G75*
G02*
X18825000Y-6300000I125000J0D01*
G01*
D11*
X10955777Y-11616484D02*
X10955777Y-11416484D01*
X10955777Y-11416484D02*
X11003396Y-11416484D01*
X11003396Y-11416484D02*
X11031967Y-11426008D01*
X11031967Y-11426008D02*
X11051015Y-11445055D01*
X11051015Y-11445055D02*
X11060539Y-11464103D01*
X11060539Y-11464103D02*
X11070063Y-11502198D01*
X11070063Y-11502198D02*
X11070063Y-11530769D01*
X11070063Y-11530769D02*
X11060539Y-11568865D01*
X11060539Y-11568865D02*
X11051015Y-11587912D01*
X11051015Y-11587912D02*
X11031967Y-11606960D01*
X11031967Y-11606960D02*
X11003396Y-11616484D01*
X11003396Y-11616484D02*
X10955777Y-11616484D01*
X11155777Y-11616484D02*
X11155777Y-11483150D01*
X11155777Y-11521246D02*
X11165301Y-11502198D01*
X11165301Y-11502198D02*
X11174824Y-11492674D01*
X11174824Y-11492674D02*
X11193872Y-11483150D01*
X11193872Y-11483150D02*
X11212920Y-11483150D01*
X11279586Y-11616484D02*
X11279586Y-11483150D01*
X11279586Y-11416484D02*
X11270062Y-11426008D01*
X11270062Y-11426008D02*
X11279586Y-11435531D01*
X11279586Y-11435531D02*
X11289110Y-11426008D01*
X11289110Y-11426008D02*
X11279586Y-11416484D01*
X11279586Y-11416484D02*
X11279586Y-11435531D01*
X11403396Y-11616484D02*
X11384348Y-11606960D01*
X11384348Y-11606960D02*
X11374824Y-11587912D01*
X11374824Y-11587912D02*
X11374824Y-11416484D01*
X11508158Y-11616484D02*
X11489110Y-11606960D01*
X11489110Y-11606960D02*
X11479586Y-11587912D01*
X11479586Y-11587912D02*
X11479586Y-11416484D01*
X11736729Y-11616484D02*
X11736729Y-11416484D01*
X11736729Y-11416484D02*
X11803396Y-11559341D01*
X11803396Y-11559341D02*
X11870062Y-11416484D01*
X11870062Y-11416484D02*
X11870062Y-11616484D01*
X12051015Y-11616484D02*
X12051015Y-11511722D01*
X12051015Y-11511722D02*
X12041491Y-11492674D01*
X12041491Y-11492674D02*
X12022443Y-11483150D01*
X12022443Y-11483150D02*
X11984348Y-11483150D01*
X11984348Y-11483150D02*
X11965301Y-11492674D01*
X12051015Y-11606960D02*
X12031967Y-11616484D01*
X12031967Y-11616484D02*
X11984348Y-11616484D01*
X11984348Y-11616484D02*
X11965301Y-11606960D01*
X11965301Y-11606960D02*
X11955777Y-11587912D01*
X11955777Y-11587912D02*
X11955777Y-11568865D01*
X11955777Y-11568865D02*
X11965301Y-11549817D01*
X11965301Y-11549817D02*
X11984348Y-11540293D01*
X11984348Y-11540293D02*
X12031967Y-11540293D01*
X12031967Y-11540293D02*
X12051015Y-11530769D01*
X12146253Y-11483150D02*
X12146253Y-11683150D01*
X12146253Y-11492674D02*
X12165301Y-11483150D01*
X12165301Y-11483150D02*
X12203396Y-11483150D01*
X12203396Y-11483150D02*
X12222443Y-11492674D01*
X12222443Y-11492674D02*
X12231967Y-11502198D01*
X12231967Y-11502198D02*
X12241491Y-11521246D01*
X12241491Y-11521246D02*
X12241491Y-11578388D01*
X12241491Y-11578388D02*
X12231967Y-11597436D01*
X12231967Y-11597436D02*
X12222443Y-11606960D01*
X12222443Y-11606960D02*
X12203396Y-11616484D01*
X12203396Y-11616484D02*
X12165301Y-11616484D01*
X12165301Y-11616484D02*
X12146253Y-11606960D01*
X12327205Y-11597436D02*
X12336729Y-11606960D01*
X12336729Y-11606960D02*
X12327205Y-11616484D01*
X12327205Y-11616484D02*
X12317682Y-11606960D01*
X12317682Y-11606960D02*
X12327205Y-11597436D01*
X12327205Y-11597436D02*
X12327205Y-11616484D01*
X12327205Y-11492674D02*
X12336729Y-11502198D01*
X12336729Y-11502198D02*
X12327205Y-11511722D01*
X12327205Y-11511722D02*
X12317682Y-11502198D01*
X12317682Y-11502198D02*
X12327205Y-11492674D01*
X12327205Y-11492674D02*
X12327205Y-11511722D01*
D10*
X10610000Y-11902500D02*
X10695000Y-11987500D01*
X10695000Y-11902500D02*
X10610000Y-11987500D01*
D11*
X10993872Y-11836484D02*
X11012920Y-11836484D01*
X11012920Y-11836484D02*
X11031967Y-11846008D01*
X11031967Y-11846008D02*
X11041491Y-11855531D01*
X11041491Y-11855531D02*
X11051015Y-11874579D01*
X11051015Y-11874579D02*
X11060539Y-11912674D01*
X11060539Y-11912674D02*
X11060539Y-11960293D01*
X11060539Y-11960293D02*
X11051015Y-11998388D01*
X11051015Y-11998388D02*
X11041491Y-12017436D01*
X11041491Y-12017436D02*
X11031967Y-12026960D01*
X11031967Y-12026960D02*
X11012920Y-12036484D01*
X11012920Y-12036484D02*
X10993872Y-12036484D01*
X10993872Y-12036484D02*
X10974824Y-12026960D01*
X10974824Y-12026960D02*
X10965301Y-12017436D01*
X10965301Y-12017436D02*
X10955777Y-11998388D01*
X10955777Y-11998388D02*
X10946253Y-11960293D01*
X10946253Y-11960293D02*
X10946253Y-11912674D01*
X10946253Y-11912674D02*
X10955777Y-11874579D01*
X10955777Y-11874579D02*
X10965301Y-11855531D01*
X10965301Y-11855531D02*
X10974824Y-11846008D01*
X10974824Y-11846008D02*
X10993872Y-11836484D01*
X11146253Y-12017436D02*
X11155777Y-12026960D01*
X11155777Y-12026960D02*
X11146253Y-12036484D01*
X11146253Y-12036484D02*
X11136729Y-12026960D01*
X11136729Y-12026960D02*
X11146253Y-12017436D01*
X11146253Y-12017436D02*
X11146253Y-12036484D01*
X11270062Y-11922198D02*
X11251015Y-11912674D01*
X11251015Y-11912674D02*
X11241491Y-11903150D01*
X11241491Y-11903150D02*
X11231967Y-11884103D01*
X11231967Y-11884103D02*
X11231967Y-11874579D01*
X11231967Y-11874579D02*
X11241491Y-11855531D01*
X11241491Y-11855531D02*
X11251015Y-11846008D01*
X11251015Y-11846008D02*
X11270062Y-11836484D01*
X11270062Y-11836484D02*
X11308158Y-11836484D01*
X11308158Y-11836484D02*
X11327205Y-11846008D01*
X11327205Y-11846008D02*
X11336729Y-11855531D01*
X11336729Y-11855531D02*
X11346253Y-11874579D01*
X11346253Y-11874579D02*
X11346253Y-11884103D01*
X11346253Y-11884103D02*
X11336729Y-11903150D01*
X11336729Y-11903150D02*
X11327205Y-11912674D01*
X11327205Y-11912674D02*
X11308158Y-11922198D01*
X11308158Y-11922198D02*
X11270062Y-11922198D01*
X11270062Y-11922198D02*
X11251015Y-11931722D01*
X11251015Y-11931722D02*
X11241491Y-11941246D01*
X11241491Y-11941246D02*
X11231967Y-11960293D01*
X11231967Y-11960293D02*
X11231967Y-11998388D01*
X11231967Y-11998388D02*
X11241491Y-12017436D01*
X11241491Y-12017436D02*
X11251015Y-12026960D01*
X11251015Y-12026960D02*
X11270062Y-12036484D01*
X11270062Y-12036484D02*
X11308158Y-12036484D01*
X11308158Y-12036484D02*
X11327205Y-12026960D01*
X11327205Y-12026960D02*
X11336729Y-12017436D01*
X11336729Y-12017436D02*
X11346253Y-11998388D01*
X11346253Y-11998388D02*
X11346253Y-11960293D01*
X11346253Y-11960293D02*
X11336729Y-11941246D01*
X11336729Y-11941246D02*
X11327205Y-11931722D01*
X11327205Y-11931722D02*
X11308158Y-11922198D01*
X11527205Y-11836484D02*
X11431967Y-11836484D01*
X11431967Y-11836484D02*
X11422443Y-11931722D01*
X11422443Y-11931722D02*
X11431967Y-11922198D01*
X11431967Y-11922198D02*
X11451015Y-11912674D01*
X11451015Y-11912674D02*
X11498634Y-11912674D01*
X11498634Y-11912674D02*
X11517682Y-11922198D01*
X11517682Y-11922198D02*
X11527205Y-11931722D01*
X11527205Y-11931722D02*
X11536729Y-11950769D01*
X11536729Y-11950769D02*
X11536729Y-11998388D01*
X11536729Y-11998388D02*
X11527205Y-12017436D01*
X11527205Y-12017436D02*
X11517682Y-12026960D01*
X11517682Y-12026960D02*
X11498634Y-12036484D01*
X11498634Y-12036484D02*
X11451015Y-12036484D01*
X11451015Y-12036484D02*
X11431967Y-12026960D01*
X11431967Y-12026960D02*
X11422443Y-12017436D01*
X11660539Y-11836484D02*
X11679586Y-11836484D01*
X11679586Y-11836484D02*
X11698634Y-11846008D01*
X11698634Y-11846008D02*
X11708158Y-11855531D01*
X11708158Y-11855531D02*
X11717682Y-11874579D01*
X11717682Y-11874579D02*
X11727205Y-11912674D01*
X11727205Y-11912674D02*
X11727205Y-11960293D01*
X11727205Y-11960293D02*
X11717682Y-11998388D01*
X11717682Y-11998388D02*
X11708158Y-12017436D01*
X11708158Y-12017436D02*
X11698634Y-12026960D01*
X11698634Y-12026960D02*
X11679586Y-12036484D01*
X11679586Y-12036484D02*
X11660539Y-12036484D01*
X11660539Y-12036484D02*
X11641491Y-12026960D01*
X11641491Y-12026960D02*
X11631967Y-12017436D01*
X11631967Y-12017436D02*
X11622443Y-11998388D01*
X11622443Y-11998388D02*
X11612920Y-11960293D01*
X11612920Y-11960293D02*
X11612920Y-11912674D01*
X11612920Y-11912674D02*
X11622443Y-11874579D01*
X11622443Y-11874579D02*
X11631967Y-11855531D01*
X11631967Y-11855531D02*
X11641491Y-11846008D01*
X11641491Y-11846008D02*
X11660539Y-11836484D01*
X11812920Y-12036484D02*
X11812920Y-11903150D01*
X11812920Y-11922198D02*
X11822443Y-11912674D01*
X11822443Y-11912674D02*
X11841491Y-11903150D01*
X11841491Y-11903150D02*
X11870063Y-11903150D01*
X11870063Y-11903150D02*
X11889110Y-11912674D01*
X11889110Y-11912674D02*
X11898634Y-11931722D01*
X11898634Y-11931722D02*
X11898634Y-12036484D01*
X11898634Y-11931722D02*
X11908158Y-11912674D01*
X11908158Y-11912674D02*
X11927205Y-11903150D01*
X11927205Y-11903150D02*
X11955777Y-11903150D01*
X11955777Y-11903150D02*
X11974824Y-11912674D01*
X11974824Y-11912674D02*
X11984348Y-11931722D01*
X11984348Y-11931722D02*
X11984348Y-12036484D01*
X12079586Y-12036484D02*
X12079586Y-11903150D01*
X12079586Y-11922198D02*
X12089110Y-11912674D01*
X12089110Y-11912674D02*
X12108158Y-11903150D01*
X12108158Y-11903150D02*
X12136729Y-11903150D01*
X12136729Y-11903150D02*
X12155777Y-11912674D01*
X12155777Y-11912674D02*
X12165301Y-11931722D01*
X12165301Y-11931722D02*
X12165301Y-12036484D01*
X12165301Y-11931722D02*
X12174824Y-11912674D01*
X12174824Y-11912674D02*
X12193872Y-11903150D01*
X12193872Y-11903150D02*
X12222443Y-11903150D01*
X12222443Y-11903150D02*
X12241491Y-11912674D01*
X12241491Y-11912674D02*
X12251015Y-11931722D01*
X12251015Y-11931722D02*
X12251015Y-12036484D01*
X12641491Y-11826960D02*
X12470063Y-12084103D01*
X12898634Y-11836484D02*
X12917682Y-11836484D01*
X12917682Y-11836484D02*
X12936729Y-11846008D01*
X12936729Y-11846008D02*
X12946253Y-11855531D01*
X12946253Y-11855531D02*
X12955777Y-11874579D01*
X12955777Y-11874579D02*
X12965301Y-11912674D01*
X12965301Y-11912674D02*
X12965301Y-11960293D01*
X12965301Y-11960293D02*
X12955777Y-11998388D01*
X12955777Y-11998388D02*
X12946253Y-12017436D01*
X12946253Y-12017436D02*
X12936729Y-12026960D01*
X12936729Y-12026960D02*
X12917682Y-12036484D01*
X12917682Y-12036484D02*
X12898634Y-12036484D01*
X12898634Y-12036484D02*
X12879586Y-12026960D01*
X12879586Y-12026960D02*
X12870063Y-12017436D01*
X12870063Y-12017436D02*
X12860539Y-11998388D01*
X12860539Y-11998388D02*
X12851015Y-11960293D01*
X12851015Y-11960293D02*
X12851015Y-11912674D01*
X12851015Y-11912674D02*
X12860539Y-11874579D01*
X12860539Y-11874579D02*
X12870063Y-11855531D01*
X12870063Y-11855531D02*
X12879586Y-11846008D01*
X12879586Y-11846008D02*
X12898634Y-11836484D01*
X13051015Y-12017436D02*
X13060539Y-12026960D01*
X13060539Y-12026960D02*
X13051015Y-12036484D01*
X13051015Y-12036484D02*
X13041491Y-12026960D01*
X13041491Y-12026960D02*
X13051015Y-12017436D01*
X13051015Y-12017436D02*
X13051015Y-12036484D01*
X13184348Y-11836484D02*
X13203396Y-11836484D01*
X13203396Y-11836484D02*
X13222444Y-11846008D01*
X13222444Y-11846008D02*
X13231967Y-11855531D01*
X13231967Y-11855531D02*
X13241491Y-11874579D01*
X13241491Y-11874579D02*
X13251015Y-11912674D01*
X13251015Y-11912674D02*
X13251015Y-11960293D01*
X13251015Y-11960293D02*
X13241491Y-11998388D01*
X13241491Y-11998388D02*
X13231967Y-12017436D01*
X13231967Y-12017436D02*
X13222444Y-12026960D01*
X13222444Y-12026960D02*
X13203396Y-12036484D01*
X13203396Y-12036484D02*
X13184348Y-12036484D01*
X13184348Y-12036484D02*
X13165301Y-12026960D01*
X13165301Y-12026960D02*
X13155777Y-12017436D01*
X13155777Y-12017436D02*
X13146253Y-11998388D01*
X13146253Y-11998388D02*
X13136729Y-11960293D01*
X13136729Y-11960293D02*
X13136729Y-11912674D01*
X13136729Y-11912674D02*
X13146253Y-11874579D01*
X13146253Y-11874579D02*
X13155777Y-11855531D01*
X13155777Y-11855531D02*
X13165301Y-11846008D01*
X13165301Y-11846008D02*
X13184348Y-11836484D01*
X13317682Y-11836484D02*
X13441491Y-11836484D01*
X13441491Y-11836484D02*
X13374825Y-11912674D01*
X13374825Y-11912674D02*
X13403396Y-11912674D01*
X13403396Y-11912674D02*
X13422444Y-11922198D01*
X13422444Y-11922198D02*
X13431967Y-11931722D01*
X13431967Y-11931722D02*
X13441491Y-11950769D01*
X13441491Y-11950769D02*
X13441491Y-11998388D01*
X13441491Y-11998388D02*
X13431967Y-12017436D01*
X13431967Y-12017436D02*
X13422444Y-12026960D01*
X13422444Y-12026960D02*
X13403396Y-12036484D01*
X13403396Y-12036484D02*
X13346253Y-12036484D01*
X13346253Y-12036484D02*
X13327206Y-12026960D01*
X13327206Y-12026960D02*
X13317682Y-12017436D01*
X13508158Y-11836484D02*
X13631967Y-11836484D01*
X13631967Y-11836484D02*
X13565301Y-11912674D01*
X13565301Y-11912674D02*
X13593872Y-11912674D01*
X13593872Y-11912674D02*
X13612920Y-11922198D01*
X13612920Y-11922198D02*
X13622444Y-11931722D01*
X13622444Y-11931722D02*
X13631967Y-11950769D01*
X13631967Y-11950769D02*
X13631967Y-11998388D01*
X13631967Y-11998388D02*
X13622444Y-12017436D01*
X13622444Y-12017436D02*
X13612920Y-12026960D01*
X13612920Y-12026960D02*
X13593872Y-12036484D01*
X13593872Y-12036484D02*
X13536729Y-12036484D01*
X13536729Y-12036484D02*
X13517682Y-12026960D01*
X13517682Y-12026960D02*
X13508158Y-12017436D01*
X13812920Y-11836484D02*
X13717682Y-11836484D01*
X13717682Y-11836484D02*
X13708158Y-11931722D01*
X13708158Y-11931722D02*
X13717682Y-11922198D01*
X13717682Y-11922198D02*
X13736729Y-11912674D01*
X13736729Y-11912674D02*
X13784348Y-11912674D01*
X13784348Y-11912674D02*
X13803396Y-11922198D01*
X13803396Y-11922198D02*
X13812920Y-11931722D01*
X13812920Y-11931722D02*
X13822444Y-11950769D01*
X13822444Y-11950769D02*
X13822444Y-11998388D01*
X13822444Y-11998388D02*
X13812920Y-12017436D01*
X13812920Y-12017436D02*
X13803396Y-12026960D01*
X13803396Y-12026960D02*
X13784348Y-12036484D01*
X13784348Y-12036484D02*
X13736729Y-12036484D01*
X13736729Y-12036484D02*
X13717682Y-12026960D01*
X13717682Y-12026960D02*
X13708158Y-12017436D01*
X13898634Y-11836484D02*
X13898634Y-11874579D01*
X13974825Y-11836484D02*
X13974825Y-11874579D01*
X14270063Y-12112674D02*
X14260539Y-12103150D01*
X14260539Y-12103150D02*
X14241491Y-12074579D01*
X14241491Y-12074579D02*
X14231968Y-12055531D01*
X14231968Y-12055531D02*
X14222444Y-12026960D01*
X14222444Y-12026960D02*
X14212920Y-11979341D01*
X14212920Y-11979341D02*
X14212920Y-11941246D01*
X14212920Y-11941246D02*
X14222444Y-11893627D01*
X14222444Y-11893627D02*
X14231968Y-11865055D01*
X14231968Y-11865055D02*
X14241491Y-11846008D01*
X14241491Y-11846008D02*
X14260539Y-11817436D01*
X14260539Y-11817436D02*
X14270063Y-11807912D01*
X14336729Y-11855531D02*
X14346253Y-11846008D01*
X14346253Y-11846008D02*
X14365301Y-11836484D01*
X14365301Y-11836484D02*
X14412920Y-11836484D01*
X14412920Y-11836484D02*
X14431968Y-11846008D01*
X14431968Y-11846008D02*
X14441491Y-11855531D01*
X14441491Y-11855531D02*
X14451015Y-11874579D01*
X14451015Y-11874579D02*
X14451015Y-11893627D01*
X14451015Y-11893627D02*
X14441491Y-11922198D01*
X14441491Y-11922198D02*
X14327206Y-12036484D01*
X14327206Y-12036484D02*
X14451015Y-12036484D01*
X14689110Y-12036484D02*
X14689110Y-11836484D01*
X14774825Y-12036484D02*
X14774825Y-11931722D01*
X14774825Y-11931722D02*
X14765301Y-11912674D01*
X14765301Y-11912674D02*
X14746253Y-11903150D01*
X14746253Y-11903150D02*
X14717682Y-11903150D01*
X14717682Y-11903150D02*
X14698634Y-11912674D01*
X14698634Y-11912674D02*
X14689110Y-11922198D01*
X14898634Y-12036484D02*
X14879587Y-12026960D01*
X14879587Y-12026960D02*
X14870063Y-12017436D01*
X14870063Y-12017436D02*
X14860539Y-11998388D01*
X14860539Y-11998388D02*
X14860539Y-11941246D01*
X14860539Y-11941246D02*
X14870063Y-11922198D01*
X14870063Y-11922198D02*
X14879587Y-11912674D01*
X14879587Y-11912674D02*
X14898634Y-11903150D01*
X14898634Y-11903150D02*
X14927206Y-11903150D01*
X14927206Y-11903150D02*
X14946253Y-11912674D01*
X14946253Y-11912674D02*
X14955777Y-11922198D01*
X14955777Y-11922198D02*
X14965301Y-11941246D01*
X14965301Y-11941246D02*
X14965301Y-11998388D01*
X14965301Y-11998388D02*
X14955777Y-12017436D01*
X14955777Y-12017436D02*
X14946253Y-12026960D01*
X14946253Y-12026960D02*
X14927206Y-12036484D01*
X14927206Y-12036484D02*
X14898634Y-12036484D01*
X15079587Y-12036484D02*
X15060539Y-12026960D01*
X15060539Y-12026960D02*
X15051015Y-12007912D01*
X15051015Y-12007912D02*
X15051015Y-11836484D01*
X15231968Y-12026960D02*
X15212920Y-12036484D01*
X15212920Y-12036484D02*
X15174825Y-12036484D01*
X15174825Y-12036484D02*
X15155777Y-12026960D01*
X15155777Y-12026960D02*
X15146253Y-12007912D01*
X15146253Y-12007912D02*
X15146253Y-11931722D01*
X15146253Y-11931722D02*
X15155777Y-11912674D01*
X15155777Y-11912674D02*
X15174825Y-11903150D01*
X15174825Y-11903150D02*
X15212920Y-11903150D01*
X15212920Y-11903150D02*
X15231968Y-11912674D01*
X15231968Y-11912674D02*
X15241491Y-11931722D01*
X15241491Y-11931722D02*
X15241491Y-11950769D01*
X15241491Y-11950769D02*
X15146253Y-11969817D01*
X15317682Y-12026960D02*
X15336730Y-12036484D01*
X15336730Y-12036484D02*
X15374825Y-12036484D01*
X15374825Y-12036484D02*
X15393872Y-12026960D01*
X15393872Y-12026960D02*
X15403396Y-12007912D01*
X15403396Y-12007912D02*
X15403396Y-11998388D01*
X15403396Y-11998388D02*
X15393872Y-11979341D01*
X15393872Y-11979341D02*
X15374825Y-11969817D01*
X15374825Y-11969817D02*
X15346253Y-11969817D01*
X15346253Y-11969817D02*
X15327206Y-11960293D01*
X15327206Y-11960293D02*
X15317682Y-11941246D01*
X15317682Y-11941246D02*
X15317682Y-11931722D01*
X15317682Y-11931722D02*
X15327206Y-11912674D01*
X15327206Y-11912674D02*
X15346253Y-11903150D01*
X15346253Y-11903150D02*
X15374825Y-11903150D01*
X15374825Y-11903150D02*
X15393872Y-11912674D01*
X15470063Y-12112674D02*
X15479587Y-12103150D01*
X15479587Y-12103150D02*
X15498634Y-12074579D01*
X15498634Y-12074579D02*
X15508158Y-12055531D01*
X15508158Y-12055531D02*
X15517682Y-12026960D01*
X15517682Y-12026960D02*
X15527206Y-11979341D01*
X15527206Y-11979341D02*
X15527206Y-11941246D01*
X15527206Y-11941246D02*
X15517682Y-11893627D01*
X15517682Y-11893627D02*
X15508158Y-11865055D01*
X15508158Y-11865055D02*
X15498634Y-11846008D01*
X15498634Y-11846008D02*
X15479587Y-11817436D01*
X15479587Y-11817436D02*
X15470063Y-11807912D01*
X10695000Y-12209000D02*
G75*
G02*
X10495000Y-12209000I-100000J0D01*
G01*
X10495000Y-12209000D02*
G75*
G02*
X10695000Y-12209000I100000J0D01*
G01*
X10946253Y-12119531D02*
X10955777Y-12110008D01*
X10955777Y-12110008D02*
X10974824Y-12100484D01*
X10974824Y-12100484D02*
X11022444Y-12100484D01*
X11022444Y-12100484D02*
X11041491Y-12110008D01*
X11041491Y-12110008D02*
X11051015Y-12119531D01*
X11051015Y-12119531D02*
X11060539Y-12138579D01*
X11060539Y-12138579D02*
X11060539Y-12157627D01*
X11060539Y-12157627D02*
X11051015Y-12186198D01*
X11051015Y-12186198D02*
X10936729Y-12300484D01*
X10936729Y-12300484D02*
X11060539Y-12300484D01*
X11146253Y-12281436D02*
X11155777Y-12290960D01*
X11155777Y-12290960D02*
X11146253Y-12300484D01*
X11146253Y-12300484D02*
X11136729Y-12290960D01*
X11136729Y-12290960D02*
X11146253Y-12281436D01*
X11146253Y-12281436D02*
X11146253Y-12300484D01*
X11336729Y-12100484D02*
X11241491Y-12100484D01*
X11241491Y-12100484D02*
X11231967Y-12195722D01*
X11231967Y-12195722D02*
X11241491Y-12186198D01*
X11241491Y-12186198D02*
X11260539Y-12176674D01*
X11260539Y-12176674D02*
X11308158Y-12176674D01*
X11308158Y-12176674D02*
X11327205Y-12186198D01*
X11327205Y-12186198D02*
X11336729Y-12195722D01*
X11336729Y-12195722D02*
X11346253Y-12214769D01*
X11346253Y-12214769D02*
X11346253Y-12262388D01*
X11346253Y-12262388D02*
X11336729Y-12281436D01*
X11336729Y-12281436D02*
X11327205Y-12290960D01*
X11327205Y-12290960D02*
X11308158Y-12300484D01*
X11308158Y-12300484D02*
X11260539Y-12300484D01*
X11260539Y-12300484D02*
X11241491Y-12290960D01*
X11241491Y-12290960D02*
X11231967Y-12281436D01*
X11470062Y-12100484D02*
X11489110Y-12100484D01*
X11489110Y-12100484D02*
X11508158Y-12110008D01*
X11508158Y-12110008D02*
X11517682Y-12119531D01*
X11517682Y-12119531D02*
X11527205Y-12138579D01*
X11527205Y-12138579D02*
X11536729Y-12176674D01*
X11536729Y-12176674D02*
X11536729Y-12224293D01*
X11536729Y-12224293D02*
X11527205Y-12262388D01*
X11527205Y-12262388D02*
X11517682Y-12281436D01*
X11517682Y-12281436D02*
X11508158Y-12290960D01*
X11508158Y-12290960D02*
X11489110Y-12300484D01*
X11489110Y-12300484D02*
X11470062Y-12300484D01*
X11470062Y-12300484D02*
X11451015Y-12290960D01*
X11451015Y-12290960D02*
X11441491Y-12281436D01*
X11441491Y-12281436D02*
X11431967Y-12262388D01*
X11431967Y-12262388D02*
X11422443Y-12224293D01*
X11422443Y-12224293D02*
X11422443Y-12176674D01*
X11422443Y-12176674D02*
X11431967Y-12138579D01*
X11431967Y-12138579D02*
X11441491Y-12119531D01*
X11441491Y-12119531D02*
X11451015Y-12110008D01*
X11451015Y-12110008D02*
X11470062Y-12100484D01*
X11660539Y-12100484D02*
X11679586Y-12100484D01*
X11679586Y-12100484D02*
X11698634Y-12110008D01*
X11698634Y-12110008D02*
X11708158Y-12119531D01*
X11708158Y-12119531D02*
X11717682Y-12138579D01*
X11717682Y-12138579D02*
X11727205Y-12176674D01*
X11727205Y-12176674D02*
X11727205Y-12224293D01*
X11727205Y-12224293D02*
X11717682Y-12262388D01*
X11717682Y-12262388D02*
X11708158Y-12281436D01*
X11708158Y-12281436D02*
X11698634Y-12290960D01*
X11698634Y-12290960D02*
X11679586Y-12300484D01*
X11679586Y-12300484D02*
X11660539Y-12300484D01*
X11660539Y-12300484D02*
X11641491Y-12290960D01*
X11641491Y-12290960D02*
X11631967Y-12281436D01*
X11631967Y-12281436D02*
X11622443Y-12262388D01*
X11622443Y-12262388D02*
X11612920Y-12224293D01*
X11612920Y-12224293D02*
X11612920Y-12176674D01*
X11612920Y-12176674D02*
X11622443Y-12138579D01*
X11622443Y-12138579D02*
X11631967Y-12119531D01*
X11631967Y-12119531D02*
X11641491Y-12110008D01*
X11641491Y-12110008D02*
X11660539Y-12100484D01*
X11812920Y-12300484D02*
X11812920Y-12167150D01*
X11812920Y-12186198D02*
X11822443Y-12176674D01*
X11822443Y-12176674D02*
X11841491Y-12167150D01*
X11841491Y-12167150D02*
X11870063Y-12167150D01*
X11870063Y-12167150D02*
X11889110Y-12176674D01*
X11889110Y-12176674D02*
X11898634Y-12195722D01*
X11898634Y-12195722D02*
X11898634Y-12300484D01*
X11898634Y-12195722D02*
X11908158Y-12176674D01*
X11908158Y-12176674D02*
X11927205Y-12167150D01*
X11927205Y-12167150D02*
X11955777Y-12167150D01*
X11955777Y-12167150D02*
X11974824Y-12176674D01*
X11974824Y-12176674D02*
X11984348Y-12195722D01*
X11984348Y-12195722D02*
X11984348Y-12300484D01*
X12079586Y-12300484D02*
X12079586Y-12167150D01*
X12079586Y-12186198D02*
X12089110Y-12176674D01*
X12089110Y-12176674D02*
X12108158Y-12167150D01*
X12108158Y-12167150D02*
X12136729Y-12167150D01*
X12136729Y-12167150D02*
X12155777Y-12176674D01*
X12155777Y-12176674D02*
X12165301Y-12195722D01*
X12165301Y-12195722D02*
X12165301Y-12300484D01*
X12165301Y-12195722D02*
X12174824Y-12176674D01*
X12174824Y-12176674D02*
X12193872Y-12167150D01*
X12193872Y-12167150D02*
X12222443Y-12167150D01*
X12222443Y-12167150D02*
X12241491Y-12176674D01*
X12241491Y-12176674D02*
X12251015Y-12195722D01*
X12251015Y-12195722D02*
X12251015Y-12300484D01*
X12641491Y-12090960D02*
X12470063Y-12348103D01*
X12898634Y-12100484D02*
X12917682Y-12100484D01*
X12917682Y-12100484D02*
X12936729Y-12110008D01*
X12936729Y-12110008D02*
X12946253Y-12119531D01*
X12946253Y-12119531D02*
X12955777Y-12138579D01*
X12955777Y-12138579D02*
X12965301Y-12176674D01*
X12965301Y-12176674D02*
X12965301Y-12224293D01*
X12965301Y-12224293D02*
X12955777Y-12262388D01*
X12955777Y-12262388D02*
X12946253Y-12281436D01*
X12946253Y-12281436D02*
X12936729Y-12290960D01*
X12936729Y-12290960D02*
X12917682Y-12300484D01*
X12917682Y-12300484D02*
X12898634Y-12300484D01*
X12898634Y-12300484D02*
X12879586Y-12290960D01*
X12879586Y-12290960D02*
X12870063Y-12281436D01*
X12870063Y-12281436D02*
X12860539Y-12262388D01*
X12860539Y-12262388D02*
X12851015Y-12224293D01*
X12851015Y-12224293D02*
X12851015Y-12176674D01*
X12851015Y-12176674D02*
X12860539Y-12138579D01*
X12860539Y-12138579D02*
X12870063Y-12119531D01*
X12870063Y-12119531D02*
X12879586Y-12110008D01*
X12879586Y-12110008D02*
X12898634Y-12100484D01*
X13051015Y-12281436D02*
X13060539Y-12290960D01*
X13060539Y-12290960D02*
X13051015Y-12300484D01*
X13051015Y-12300484D02*
X13041491Y-12290960D01*
X13041491Y-12290960D02*
X13051015Y-12281436D01*
X13051015Y-12281436D02*
X13051015Y-12300484D01*
X13184348Y-12100484D02*
X13203396Y-12100484D01*
X13203396Y-12100484D02*
X13222444Y-12110008D01*
X13222444Y-12110008D02*
X13231967Y-12119531D01*
X13231967Y-12119531D02*
X13241491Y-12138579D01*
X13241491Y-12138579D02*
X13251015Y-12176674D01*
X13251015Y-12176674D02*
X13251015Y-12224293D01*
X13251015Y-12224293D02*
X13241491Y-12262388D01*
X13241491Y-12262388D02*
X13231967Y-12281436D01*
X13231967Y-12281436D02*
X13222444Y-12290960D01*
X13222444Y-12290960D02*
X13203396Y-12300484D01*
X13203396Y-12300484D02*
X13184348Y-12300484D01*
X13184348Y-12300484D02*
X13165301Y-12290960D01*
X13165301Y-12290960D02*
X13155777Y-12281436D01*
X13155777Y-12281436D02*
X13146253Y-12262388D01*
X13146253Y-12262388D02*
X13136729Y-12224293D01*
X13136729Y-12224293D02*
X13136729Y-12176674D01*
X13136729Y-12176674D02*
X13146253Y-12138579D01*
X13146253Y-12138579D02*
X13155777Y-12119531D01*
X13155777Y-12119531D02*
X13165301Y-12110008D01*
X13165301Y-12110008D02*
X13184348Y-12100484D01*
X13346253Y-12300484D02*
X13384348Y-12300484D01*
X13384348Y-12300484D02*
X13403396Y-12290960D01*
X13403396Y-12290960D02*
X13412920Y-12281436D01*
X13412920Y-12281436D02*
X13431967Y-12252865D01*
X13431967Y-12252865D02*
X13441491Y-12214769D01*
X13441491Y-12214769D02*
X13441491Y-12138579D01*
X13441491Y-12138579D02*
X13431967Y-12119531D01*
X13431967Y-12119531D02*
X13422444Y-12110008D01*
X13422444Y-12110008D02*
X13403396Y-12100484D01*
X13403396Y-12100484D02*
X13365301Y-12100484D01*
X13365301Y-12100484D02*
X13346253Y-12110008D01*
X13346253Y-12110008D02*
X13336729Y-12119531D01*
X13336729Y-12119531D02*
X13327206Y-12138579D01*
X13327206Y-12138579D02*
X13327206Y-12186198D01*
X13327206Y-12186198D02*
X13336729Y-12205246D01*
X13336729Y-12205246D02*
X13346253Y-12214769D01*
X13346253Y-12214769D02*
X13365301Y-12224293D01*
X13365301Y-12224293D02*
X13403396Y-12224293D01*
X13403396Y-12224293D02*
X13422444Y-12214769D01*
X13422444Y-12214769D02*
X13431967Y-12205246D01*
X13431967Y-12205246D02*
X13441491Y-12186198D01*
X13555777Y-12186198D02*
X13536729Y-12176674D01*
X13536729Y-12176674D02*
X13527206Y-12167150D01*
X13527206Y-12167150D02*
X13517682Y-12148103D01*
X13517682Y-12148103D02*
X13517682Y-12138579D01*
X13517682Y-12138579D02*
X13527206Y-12119531D01*
X13527206Y-12119531D02*
X13536729Y-12110008D01*
X13536729Y-12110008D02*
X13555777Y-12100484D01*
X13555777Y-12100484D02*
X13593872Y-12100484D01*
X13593872Y-12100484D02*
X13612920Y-12110008D01*
X13612920Y-12110008D02*
X13622444Y-12119531D01*
X13622444Y-12119531D02*
X13631967Y-12138579D01*
X13631967Y-12138579D02*
X13631967Y-12148103D01*
X13631967Y-12148103D02*
X13622444Y-12167150D01*
X13622444Y-12167150D02*
X13612920Y-12176674D01*
X13612920Y-12176674D02*
X13593872Y-12186198D01*
X13593872Y-12186198D02*
X13555777Y-12186198D01*
X13555777Y-12186198D02*
X13536729Y-12195722D01*
X13536729Y-12195722D02*
X13527206Y-12205246D01*
X13527206Y-12205246D02*
X13517682Y-12224293D01*
X13517682Y-12224293D02*
X13517682Y-12262388D01*
X13517682Y-12262388D02*
X13527206Y-12281436D01*
X13527206Y-12281436D02*
X13536729Y-12290960D01*
X13536729Y-12290960D02*
X13555777Y-12300484D01*
X13555777Y-12300484D02*
X13593872Y-12300484D01*
X13593872Y-12300484D02*
X13612920Y-12290960D01*
X13612920Y-12290960D02*
X13622444Y-12281436D01*
X13622444Y-12281436D02*
X13631967Y-12262388D01*
X13631967Y-12262388D02*
X13631967Y-12224293D01*
X13631967Y-12224293D02*
X13622444Y-12205246D01*
X13622444Y-12205246D02*
X13612920Y-12195722D01*
X13612920Y-12195722D02*
X13593872Y-12186198D01*
X13803396Y-12167150D02*
X13803396Y-12300484D01*
X13755777Y-12090960D02*
X13708158Y-12233817D01*
X13708158Y-12233817D02*
X13831967Y-12233817D01*
X13898634Y-12100484D02*
X13898634Y-12138579D01*
X13974825Y-12100484D02*
X13974825Y-12138579D01*
X14270063Y-12376674D02*
X14260539Y-12367150D01*
X14260539Y-12367150D02*
X14241491Y-12338579D01*
X14241491Y-12338579D02*
X14231968Y-12319531D01*
X14231968Y-12319531D02*
X14222444Y-12290960D01*
X14222444Y-12290960D02*
X14212920Y-12243341D01*
X14212920Y-12243341D02*
X14212920Y-12205246D01*
X14212920Y-12205246D02*
X14222444Y-12157627D01*
X14222444Y-12157627D02*
X14231968Y-12129055D01*
X14231968Y-12129055D02*
X14241491Y-12110008D01*
X14241491Y-12110008D02*
X14260539Y-12081436D01*
X14260539Y-12081436D02*
X14270063Y-12071912D01*
X14336729Y-12119531D02*
X14346253Y-12110008D01*
X14346253Y-12110008D02*
X14365301Y-12100484D01*
X14365301Y-12100484D02*
X14412920Y-12100484D01*
X14412920Y-12100484D02*
X14431968Y-12110008D01*
X14431968Y-12110008D02*
X14441491Y-12119531D01*
X14441491Y-12119531D02*
X14451015Y-12138579D01*
X14451015Y-12138579D02*
X14451015Y-12157627D01*
X14451015Y-12157627D02*
X14441491Y-12186198D01*
X14441491Y-12186198D02*
X14327206Y-12300484D01*
X14327206Y-12300484D02*
X14451015Y-12300484D01*
X14689110Y-12300484D02*
X14689110Y-12100484D01*
X14774825Y-12300484D02*
X14774825Y-12195722D01*
X14774825Y-12195722D02*
X14765301Y-12176674D01*
X14765301Y-12176674D02*
X14746253Y-12167150D01*
X14746253Y-12167150D02*
X14717682Y-12167150D01*
X14717682Y-12167150D02*
X14698634Y-12176674D01*
X14698634Y-12176674D02*
X14689110Y-12186198D01*
X14898634Y-12300484D02*
X14879587Y-12290960D01*
X14879587Y-12290960D02*
X14870063Y-12281436D01*
X14870063Y-12281436D02*
X14860539Y-12262388D01*
X14860539Y-12262388D02*
X14860539Y-12205246D01*
X14860539Y-12205246D02*
X14870063Y-12186198D01*
X14870063Y-12186198D02*
X14879587Y-12176674D01*
X14879587Y-12176674D02*
X14898634Y-12167150D01*
X14898634Y-12167150D02*
X14927206Y-12167150D01*
X14927206Y-12167150D02*
X14946253Y-12176674D01*
X14946253Y-12176674D02*
X14955777Y-12186198D01*
X14955777Y-12186198D02*
X14965301Y-12205246D01*
X14965301Y-12205246D02*
X14965301Y-12262388D01*
X14965301Y-12262388D02*
X14955777Y-12281436D01*
X14955777Y-12281436D02*
X14946253Y-12290960D01*
X14946253Y-12290960D02*
X14927206Y-12300484D01*
X14927206Y-12300484D02*
X14898634Y-12300484D01*
X15079587Y-12300484D02*
X15060539Y-12290960D01*
X15060539Y-12290960D02*
X15051015Y-12271912D01*
X15051015Y-12271912D02*
X15051015Y-12100484D01*
X15231968Y-12290960D02*
X15212920Y-12300484D01*
X15212920Y-12300484D02*
X15174825Y-12300484D01*
X15174825Y-12300484D02*
X15155777Y-12290960D01*
X15155777Y-12290960D02*
X15146253Y-12271912D01*
X15146253Y-12271912D02*
X15146253Y-12195722D01*
X15146253Y-12195722D02*
X15155777Y-12176674D01*
X15155777Y-12176674D02*
X15174825Y-12167150D01*
X15174825Y-12167150D02*
X15212920Y-12167150D01*
X15212920Y-12167150D02*
X15231968Y-12176674D01*
X15231968Y-12176674D02*
X15241491Y-12195722D01*
X15241491Y-12195722D02*
X15241491Y-12214769D01*
X15241491Y-12214769D02*
X15146253Y-12233817D01*
X15317682Y-12290960D02*
X15336730Y-12300484D01*
X15336730Y-12300484D02*
X15374825Y-12300484D01*
X15374825Y-12300484D02*
X15393872Y-12290960D01*
X15393872Y-12290960D02*
X15403396Y-12271912D01*
X15403396Y-12271912D02*
X15403396Y-12262388D01*
X15403396Y-12262388D02*
X15393872Y-12243341D01*
X15393872Y-12243341D02*
X15374825Y-12233817D01*
X15374825Y-12233817D02*
X15346253Y-12233817D01*
X15346253Y-12233817D02*
X15327206Y-12224293D01*
X15327206Y-12224293D02*
X15317682Y-12205246D01*
X15317682Y-12205246D02*
X15317682Y-12195722D01*
X15317682Y-12195722D02*
X15327206Y-12176674D01*
X15327206Y-12176674D02*
X15346253Y-12167150D01*
X15346253Y-12167150D02*
X15374825Y-12167150D01*
X15374825Y-12167150D02*
X15393872Y-12176674D01*
X15470063Y-12376674D02*
X15479587Y-12367150D01*
X15479587Y-12367150D02*
X15498634Y-12338579D01*
X15498634Y-12338579D02*
X15508158Y-12319531D01*
X15508158Y-12319531D02*
X15517682Y-12290960D01*
X15517682Y-12290960D02*
X15527206Y-12243341D01*
X15527206Y-12243341D02*
X15527206Y-12205246D01*
X15527206Y-12205246D02*
X15517682Y-12157627D01*
X15517682Y-12157627D02*
X15508158Y-12129055D01*
X15508158Y-12129055D02*
X15498634Y-12110008D01*
X15498634Y-12110008D02*
X15479587Y-12081436D01*
X15479587Y-12081436D02*
X15470063Y-12071912D01*
M02*
